# File created by Blade
# Date/Time:  Wed Apr 08 17:19:54 2015
# Frame Rate: 120.000 fps
#------------------------------------------------------
:FULLY-SPECIFIED
:DEGREES
956
root 5.330863 36.396003 0.701308 135.242681 -70.864381 -134.992127
Spine 8.344372 1.040944 3.922048
Head 12.017277 8.327688 15.061050
LeftShoulder -8.587350 17.130385 15.675035
LeftArm 14.201251 22.493393 -76.029559
LeftForeArm 23.801659 -0.000000 15.344723
LeftHand -10.573406 -0.000000 -18.451221
LeftHandThumb1 -26.253704 0.000000 33.147579
RightShoulder -39.038721 -50.190802 30.194383
RightArm 47.180648 -12.566332 65.407940
RightForeArm 37.953591 -0.000000 13.061624
RightHand -1.261130 -0.000000 3.419398
RightHandThumb1 -24.326973 -0.000000 -32.862282
LeftUpLeg 5.976988 33.238987 6.900410
LeftLeg 8.339934 -0.000000 -0.000000
LeftFoot -18.926367 11.803350 -4.740752
LeftToeBase 6.243019 -0.000000 -0.000000
RightUpLeg -16.422408 -18.544015 -38.686100
RightLeg 149.264560 -0.000000 -0.000000
RightFoot 39.836540 10.787204 10.985162
RightToeBase 18.238635 -0.000000 -0.000000
957
root 5.348368 36.404710 0.701877 136.073263 -70.605844 -135.646900
Spine 8.344847 0.999234 3.785566
Head 11.926338 8.356060 15.142774
LeftShoulder -8.644915 17.127875 15.619722
LeftArm 14.273506 22.608662 -75.978770
LeftForeArm 23.742629 -0.000000 15.380705
LeftHand -10.581857 -0.000000 -18.469297
LeftHandThumb1 -26.253704 0.000000 33.147579
RightShoulder -39.165579 -50.254134 30.279708
RightArm 47.268593 -12.732558 65.347598
RightForeArm 37.955112 0.000000 13.123790
RightHand -1.263098 0.000000 3.518542
RightHandThumb1 -24.326973 -0.000000 -32.862282
LeftUpLeg 5.780059 33.498423 6.806276
LeftLeg 8.316155 -0.000000 -0.000000
LeftFoot -18.923217 11.864513 -4.890798
LeftToeBase 6.402981 -0.000000 -0.000000
RightUpLeg -16.243504 -18.382347 -38.601642
RightLeg 149.363305 -0.000000 -0.000000
RightFoot 39.965661 10.840389 11.026063
RightToeBase 18.246732 -0.000000 -0.000000
958
root 5.362077 36.411937 0.701582 136.874529 -70.355948 -136.299301
Spine 8.368945 0.965569 3.633716
Head 11.829310 8.387720 15.246058
LeftShoulder -8.674912 17.115430 15.584828
LeftArm 14.286352 22.547417 -76.037285
LeftForeArm 23.854737 -0.000000 15.416317
LeftHand -10.597725 0.000000 -18.353611
LeftHandThumb1 -26.253704 0.000000 33.147579
RightShoulder -39.158086 -50.267244 30.238502
RightArm 47.214110 -12.938227 65.357535
RightForeArm 37.968634 -0.000000 13.200404
RightHand -1.324397 -0.000000 3.671529
RightHandThumb1 -24.326973 -0.000000 -32.862282
LeftUpLeg 5.635872 33.782816 6.733456
LeftLeg 8.276271 -0.000000 -0.000000
LeftFoot -18.929625 11.865365 -5.077213
LeftToeBase 6.567556 -0.000000 -0.000000
RightUpLeg -16.051239 -18.229348 -38.496588
RightLeg 149.437900 -0.000000 -0.000000
RightFoot 40.246342 10.935020 10.986686
RightToeBase 18.057796 -0.000000 -0.000000
959
root 5.378407 36.419491 0.702842 137.655555 -70.103679 -136.921676
Spine 8.390598 0.954360 3.492887
Head 11.713711 8.421877 15.340612
LeftShoulder -8.663487 17.088121 15.555873
LeftArm 14.304954 22.504788 -76.081199
LeftForeArm 23.728247 -0.000000 15.439959
LeftHand -10.627212 0.000000 -18.359622
LeftHandThumb1 -26.253704 0.000000 33.147579
RightShoulder -39.213008 -50.322179 30.301159
RightArm 47.210097 -13.056371 65.386335
RightForeArm 37.914777 -0.000000 13.288685
RightHand -1.485940 -0.000000 3.851607
RightHandThumb1 -24.326973 -0.000000 -32.862282
LeftUpLeg 5.484226 34.140688 6.673649
LeftLeg 8.240411 -0.000000 -0.000000
LeftFoot -18.935297 11.760565 -5.245127
LeftToeBase 6.715170 -0.000000 -0.000000
RightUpLeg -15.834056 -18.087889 -38.343246
RightLeg 149.524586 -0.000000 -0.000000
RightFoot 40.405938 10.997389 11.124266
RightToeBase 17.855902 -0.000000 -0.000000
960
root 5.393880 36.425545 0.707081 138.385324 -69.872065 -137.519343
Spine 8.454190 0.914311 3.351336
Head 11.580360 8.463904 15.417689
LeftShoulder -8.710455 17.093281 15.496277
LeftArm 14.376469 22.438973 -76.121444
LeftForeArm 23.702447 -0.000000 15.476716
LeftHand -10.696111 -0.000000 -18.279719
LeftHandThumb1 -26.253704 0.000000 33.147579
RightShoulder -39.250588 -50.397032 30.348146
RightArm 47.296140 -13.320706 65.204077
RightForeArm 38.058981 -0.000000 13.345898
RightHand -1.598863 -0.000000 4.021414
RightHandThumb1 -24.326973 -0.000000 -32.862282
LeftUpLeg 5.361399 34.498879 6.617482
LeftLeg 8.206357 -0.000000 -0.000000
LeftFoot -18.946126 11.638173 -5.392776
LeftToeBase 6.886189 -0.000000 -0.000000
RightUpLeg -15.566655 -17.969041 -38.180069
RightLeg 149.609114 -0.000000 -0.000000
RightFoot 40.461706 11.036497 11.202828
RightToeBase 17.970165 -0.000000 -0.000000
